<?xml version="1.0" encoding="utf-8"?>
<!-- Generator: Adobe Illustrator 24.2.1, SVG Export Plug-In . SVG Version: 6.00 Build 0)  -->
<svg version="1.1" id="Layer_1" xmlns="http://www.w3.org/2000/svg" xmlns:xlink="http://www.w3.org/1999/xlink" x="0px" y="0px"
	 viewBox="0 0 1920 1080" style="enable-background:new 0 0 1920 1080;" xml:space="preserve">
<style type="text/css">
	.st0{fill:none;}
	.st1{fill:#FFFFFF;}
	.st2{fill:#FFFFFF;stroke:#000000;stroke-miterlimit:10;}
</style>
<g>
	<polygon class="st0" points="948.25,607.98 945.2,607.98 945.2,608.02 963.37,608.02 963.37,607.98 960.35,607.98 	"/>
	<path class="st1" d="M948.25,606.87h12.11c1.04,0,1.9-0.86,1.9-1.89v-12.85h-3.21c-1.34,0-2.42-1.08-2.42-2.42v-3.49h-8.37
		c-1.04,0-1.9,0.86-1.9,1.89v16.87C946.35,606.02,947.21,606.87,948.25,606.87z M950.69,596.83c0.22-0.21,0.57-0.19,0.78,0.03
		l2.28,2.45v-6.03c0-0.3,0.25-0.55,0.55-0.55c0.3,0,0.55,0.25,0.55,0.55v6.03l2.28-2.45c0.2-0.22,0.56-0.24,0.78-0.03
		c0.22,0.2,0.24,0.56,0.03,0.78l-3.24,3.47c-0.1,0.11-0.25,0.18-0.4,0.18c-0.15,0-0.3-0.07-0.4-0.18l-3.23-3.47
		C950.45,597.38,950.47,597.04,950.69,596.83z M949.75,603.06h9.09c0.31,0,0.56,0.25,0.56,0.55c0,0.3-0.25,0.55-0.55,0.55h-9.1
		c-0.3,0-0.55-0.25-0.55-0.55C949.2,603.31,949.45,603.06,949.75,603.06z"/>
	<path class="st1" d="M959.04,591.02h2.45l-3.77-3.96v2.65C957.72,590.44,958.31,591.02,959.04,591.02z"/>
	<path d="M945.24,588.11v16.87c0,1.65,1.36,3,3,3h12.11c1.65,0,3-1.35,3-3v-13.39c0-0.14-0.07-0.28-0.16-0.39l-5.63-5.91
		c-0.05-0.06-0.12-0.1-0.19-0.13h-9.64C946.33,585.4,945.24,586.64,945.24,588.11z M957.72,587.06l3.77,3.96h-2.45
		c-0.73,0-1.32-0.59-1.32-1.31V587.06z M946.35,588.11c0-1.03,0.86-1.89,1.9-1.89h8.37v3.49c0,1.34,1.08,2.42,2.42,2.42h3.21v12.85
		c0,1.04-0.86,1.89-1.9,1.89h-12.11c-1.03,0-1.9-0.86-1.9-1.89V588.11z"/>
	<path d="M949.75,604.17h9.1c0.3,0,0.55-0.25,0.55-0.55c0-0.3-0.25-0.55-0.56-0.55h-9.09c-0.3,0-0.55,0.25-0.55,0.55
		C949.2,603.92,949.45,604.17,949.75,604.17z"/>
	<path d="M953.9,601.08c0.11,0.11,0.25,0.18,0.4,0.18c0.15,0,0.3-0.07,0.4-0.18l3.24-3.47c0.21-0.22,0.19-0.57-0.03-0.78
		c-0.22-0.21-0.57-0.19-0.78,0.03l-2.28,2.45v-6.03c0-0.3-0.25-0.55-0.55-0.55c-0.3,0-0.55,0.25-0.55,0.55v6.03l-2.28-2.45
		c-0.21-0.22-0.56-0.24-0.78-0.03c-0.22,0.21-0.24,0.56-0.03,0.78L953.9,601.08z"/>
</g>
<g>
	<ellipse class="st2" cx="963.58" cy="484.19" rx="10.42" ry="10.29"/>
	<polygon class="st2" points="961.47,488.97 968.56,484.49 961.47,480 	"/>
</g>
</svg>
